<svg width="12" height="12" viewBox="0 0 12 12" fill="none" xmlns="http://www.w3.org/2000/svg">
<g id="SVG" clip-path="url(#clip0_3_2683)">
<g id="Layer 2">
<g id="Layer 1">
<g id="shop page">
<g id="Group-16">
<path id="Rectangle" fill-rule="evenodd" clip-rule="evenodd" d="M2.15994 0C2.35012 0.00248637 2.53182 0.0791416 2.66631 0.213633C2.8008 0.348124 2.87745 0.529817 2.87994 0.72V11.28C2.87745 11.4702 2.8008 11.6519 2.66631 11.7864C2.53182 11.9209 2.35012 11.9975 2.15994 12C1.96976 11.9975 1.78806 11.9209 1.65357 11.7864C1.51908 11.6519 1.44243 11.4702 1.43994 11.28V0.72C1.44243 0.529817 1.51908 0.348124 1.65357 0.213633C1.78806 0.0791416 1.96976 0.00248637 2.15994 0Z" fill="black"/>
<path id="Rectangle_2" fill-rule="evenodd" clip-rule="evenodd" d="M5.99979 0C6.18997 0.00248637 6.37166 0.0791416 6.50615 0.213633C6.64064 0.348124 6.7173 0.529817 6.71979 0.72V11.28C6.7173 11.4702 6.64064 11.6519 6.50615 11.7864C6.37166 11.9209 6.18997 11.9975 5.99979 12C5.8096 11.9975 5.62791 11.9209 5.49342 11.7864C5.35893 11.6519 5.28227 11.4702 5.27979 11.28V0.72C5.28227 0.529817 5.35893 0.348124 5.49342 0.213633C5.62791 0.0791416 5.8096 0.00248637 5.99979 0Z" fill="black"/>
<path id="Rectangle_3" fill-rule="evenodd" clip-rule="evenodd" d="M9.84012 0C10.0303 0.00248637 10.212 0.0791416 10.3465 0.213633C10.481 0.348124 10.5576 0.529817 10.5601 0.72V11.28C10.5576 11.4702 10.481 11.6519 10.3465 11.7864C10.212 11.9209 10.0303 11.9975 9.84012 12C9.64993 11.9975 9.46824 11.9209 9.33375 11.7864C9.19926 11.6519 9.1226 11.4702 9.12012 11.28V0.72C9.1226 0.529817 9.19926 0.348124 9.33375 0.213633C9.46824 0.0791416 9.64993 0.00248637 9.84012 0Z" fill="black"/>
</g>
</g>
</g>
</g>
</g>
<defs>
<clipPath id="clip0_3_2683">
<rect width="12" height="12" fill="white"/>
</clipPath>
</defs>
</svg>
