<svg width="12" height="12" viewBox="0 0 12 12" fill="none" xmlns="http://www.w3.org/2000/svg">
<g id="SVG" clip-path="url(#clip0_3_2666)">
<g id="Layer 2">
<g id="Layer 1">
<g id="shop page">
<g id="Group-16">
<path id="Rectangle" fill-rule="evenodd" clip-rule="evenodd" d="M12 2.15994C11.9975 2.35012 11.9209 2.53182 11.7864 2.66631C11.6519 2.8008 11.4702 2.87745 11.28 2.87994H0.72C0.529817 2.87745 0.348124 2.8008 0.213633 2.66631C0.0791416 2.53182 0.00248637 2.35012 0 2.15994C0.00248637 1.96976 0.0791416 1.78806 0.213633 1.65357C0.348124 1.51908 0.529817 1.44243 0.72 1.43994H11.28C11.4702 1.44243 11.6519 1.51908 11.7864 1.65357C11.9209 1.78806 11.9975 1.96976 12 2.15994Z" fill="black"/>
<path id="Rectangle_2" fill-rule="evenodd" clip-rule="evenodd" d="M12 6.00003C11.9975 6.19021 11.9209 6.37191 11.7864 6.5064C11.6519 6.64089 11.4702 6.71754 11.28 6.72003H0.72C0.529817 6.71754 0.348124 6.64089 0.213633 6.5064C0.0791416 6.37191 0.00248637 6.19021 0 6.00003C0.00248637 5.80985 0.0791416 5.62815 0.213633 5.49366C0.348124 5.35917 0.529817 5.28252 0.72 5.28003H11.28C11.4702 5.28252 11.6519 5.35917 11.7864 5.49366C11.9209 5.62815 11.9975 5.80985 12 6.00003Z" fill="black"/>
<path id="Rectangle_3" fill-rule="evenodd" clip-rule="evenodd" d="M12 9.83987C11.9975 10.0301 11.9209 10.2117 11.7864 10.3462C11.6519 10.4807 11.4702 10.5574 11.28 10.5599H0.72C0.529817 10.5574 0.348124 10.4807 0.213633 10.3462C0.0791416 10.2117 0.00248637 10.0301 0 9.83987C0.00248637 9.64969 0.0791416 9.468 0.213633 9.33351C0.348124 9.19901 0.529817 9.12236 0.72 9.11987H11.28C11.4702 9.12236 11.6519 9.19901 11.7864 9.33351C11.9209 9.468 11.9975 9.64969 12 9.83987Z" fill="black"/>
</g>
</g>
</g>
</g>
</g>
<defs>
<clipPath id="clip0_3_2666">
<rect width="12" height="12" fill="white"/>
</clipPath>
</defs>
</svg>
