<svg width="12" height="12" viewBox="0 0 12 12" fill="none" xmlns="http://www.w3.org/2000/svg">
<g id="SVG" clip-path="url(#clip0_3_2692)">
<g id="Layer 2">
<g id="Layer 1">
<g id="shop page">
<g id="4_col">
<path id="Rectangle" fill-rule="evenodd" clip-rule="evenodd" d="M0.666667 0.444336C0.842762 0.446638 1.011 0.517615 1.13553 0.642144C1.26005 0.766673 1.33103 0.934908 1.33333 1.111V10.8888C1.33103 11.0649 1.26005 11.2331 1.13553 11.3576C1.011 11.4822 0.842762 11.5531 0.666667 11.5554C0.490572 11.5531 0.322337 11.4822 0.197808 11.3576C0.0732792 11.2331 0.00230219 11.0649 0 10.8888L0 1.111C0.00230219 0.934908 0.0732792 0.766673 0.197808 0.642144C0.322337 0.517615 0.490572 0.446638 0.666667 0.444336Z" fill="black"/>
<path id="Rectangle_2" fill-rule="evenodd" clip-rule="evenodd" d="M4.22233 0.444336C4.39843 0.446638 4.56666 0.517615 4.69119 0.642144C4.81572 0.766673 4.8867 0.934908 4.889 1.111V10.8888C4.8867 11.0649 4.81572 11.2331 4.69119 11.3576C4.56666 11.4822 4.39843 11.5531 4.22233 11.5554C4.04624 11.5531 3.878 11.4822 3.75347 11.3576C3.62894 11.2331 3.55797 11.0649 3.55566 10.8888V1.111C3.55797 0.934908 3.62894 0.766673 3.75347 0.642144C3.878 0.517615 4.04624 0.446638 4.22233 0.444336Z" fill="black"/>
<path id="Rectangle_3" fill-rule="evenodd" clip-rule="evenodd" d="M7.77799 0.444336C7.95409 0.446638 8.12232 0.517615 8.24685 0.642144C8.37138 0.766673 8.44236 0.934908 8.44466 1.111V10.8888C8.44236 11.0649 8.37138 11.2331 8.24685 11.3576C8.12232 11.4822 7.95409 11.5531 7.77799 11.5554C7.6019 11.5531 7.43366 11.4822 7.30914 11.3576C7.18461 11.2331 7.11363 11.0649 7.11133 10.8888V1.111C7.11363 0.934908 7.18461 0.766673 7.30914 0.642144C7.43366 0.517615 7.6019 0.446638 7.77799 0.444336Z" fill="black"/>
<path id="Rectangle_4" fill-rule="evenodd" clip-rule="evenodd" d="M11.3332 0.444336C11.5093 0.446638 11.6775 0.517615 11.802 0.642144C11.9266 0.766673 11.9975 0.934908 11.9998 1.111V10.8888C11.9975 11.0649 11.9266 11.2331 11.802 11.3576C11.6775 11.4822 11.5093 11.5531 11.3332 11.5554C11.1571 11.5531 10.9888 11.4822 10.8643 11.3576C10.7398 11.2331 10.6688 11.0649 10.6665 10.8888V1.111C10.6688 0.934908 10.7398 0.766673 10.8643 0.642144C10.9888 0.517615 11.1571 0.446638 11.3332 0.444336Z" fill="black"/>
</g>
</g>
</g>
</g>
</g>
<defs>
<clipPath id="clip0_3_2692">
<rect width="12" height="12" fill="white"/>
</clipPath>
</defs>
</svg>
