<svg width="12" height="12" viewBox="0 0 12 12" fill="none" xmlns="http://www.w3.org/2000/svg">
<g id="SVG" clip-path="url(#clip0_3_2675)">
<g id="Layer 2">
<g id="Layer 1">
<g id="shop page">
<g id="Group-10">
<path id="Rectangle" fill-rule="evenodd" clip-rule="evenodd" d="M4.07986 0C4.27005 0.00248637 4.45174 0.0791416 4.58623 0.213633C4.72072 0.348124 4.79738 0.529817 4.79986 0.72V11.28C4.79738 11.4702 4.72072 11.6519 4.58623 11.7864C4.45174 11.9209 4.27005 11.9975 4.07986 12C3.88968 11.9975 3.70799 11.9209 3.5735 11.7864C3.439 11.6519 3.36235 11.4702 3.35986 11.28V0.72C3.36235 0.529817 3.439 0.348124 3.5735 0.213633C3.70799 0.0791416 3.88968 0.00248637 4.07986 0Z" fill="black"/>
<path id="Rectangle_2" fill-rule="evenodd" clip-rule="evenodd" d="M7.91971 0C8.10989 0.00248637 8.29158 0.0791416 8.42607 0.213633C8.56057 0.348124 8.63722 0.529817 8.63971 0.72V11.28C8.63722 11.4702 8.56057 11.6519 8.42607 11.7864C8.29158 11.9209 8.10989 11.9975 7.91971 12C7.72952 11.9975 7.54783 11.9209 7.41334 11.7864C7.27885 11.6519 7.20219 11.4702 7.19971 11.28V0.72C7.20219 0.529817 7.27885 0.348124 7.41334 0.213633C7.54783 0.0791416 7.72952 0.00248637 7.91971 0Z" fill="black"/>
</g>
</g>
</g>
</g>
</g>
<defs>
<clipPath id="clip0_3_2675">
<rect width="12" height="12" fill="white"/>
</clipPath>
</defs>
</svg>
