<svg width="12" height="12" viewBox="0 0 12 12" fill="none" xmlns="http://www.w3.org/2000/svg">
<g id="SVG" clip-path="url(#clip0_3_2702)">
<g id="Layer 2">
<g id="Layer 1">
<g id="shop page">
<g id="5_col">
<path id="Rectangle" fill-rule="evenodd" clip-rule="evenodd" d="M0.514286 1.71436C0.650131 1.71613 0.779912 1.77089 0.875977 1.86695C0.972042 1.96302 1.0268 2.0928 1.02857 2.22864V9.7715C1.0268 9.90734 0.972042 10.0371 0.875977 10.1332C0.779912 10.2293 0.650131 10.284 0.514286 10.2858C0.378441 10.284 0.24866 10.2293 0.152595 10.1332C0.0565297 10.0371 0.00177598 9.90734 0 9.7715L0 2.22864C0.00177598 2.0928 0.0565297 1.96302 0.152595 1.86695C0.24866 1.77089 0.378441 1.71613 0.514286 1.71436Z" fill="black"/>
<path id="Rectangle_2" fill-rule="evenodd" clip-rule="evenodd" d="M3.25696 1.71436C3.39281 1.71613 3.52259 1.77089 3.61865 1.86695C3.71472 1.96302 3.76947 2.0928 3.77125 2.22864V9.7715C3.76947 9.90734 3.71472 10.0371 3.61865 10.1332C3.52259 10.2293 3.39281 10.284 3.25696 10.2858C3.12112 10.284 2.99134 10.2293 2.89527 10.1332C2.79921 10.0371 2.74445 9.90734 2.74268 9.7715V2.22864C2.74445 2.0928 2.79921 1.96302 2.89527 1.86695C2.99134 1.77089 3.12112 1.71613 3.25696 1.71436Z" fill="black"/>
<path id="Rectangle_3" fill-rule="evenodd" clip-rule="evenodd" d="M6.00013 1.71436C6.13597 1.71613 6.26575 1.77089 6.36182 1.86695C6.45788 1.96302 6.51264 2.0928 6.51441 2.22864V9.7715C6.51264 9.90734 6.45788 10.0371 6.36182 10.1332C6.26575 10.2293 6.13597 10.284 6.00013 10.2858C5.86428 10.284 5.7345 10.2293 5.63843 10.1332C5.54237 10.0371 5.48762 9.90734 5.48584 9.7715V2.22864C5.48762 2.0928 5.54237 1.96302 5.63843 1.86695C5.7345 1.77089 5.86428 1.71613 6.00013 1.71436Z" fill="black"/>
<path id="Rectangle_4" fill-rule="evenodd" clip-rule="evenodd" d="M8.7428 1.71436C8.87865 1.71613 9.00843 1.77089 9.10449 1.86695C9.20056 1.96302 9.25531 2.0928 9.25709 2.22864V9.7715C9.25531 9.90734 9.20056 10.0371 9.10449 10.1332C9.00843 10.2293 8.87865 10.284 8.7428 10.2858C8.60696 10.284 8.47718 10.2293 8.38111 10.1332C8.28505 10.0371 8.23029 9.90734 8.22852 9.7715V2.22864C8.23029 2.0928 8.28505 1.96302 8.38111 1.86695C8.47718 1.77089 8.60696 1.71613 8.7428 1.71436Z" fill="black"/>
<path id="Rectangle_5" fill-rule="evenodd" clip-rule="evenodd" d="M11.4855 1.71436C11.6213 1.71613 11.7511 1.77089 11.8472 1.86695C11.9432 1.96302 11.998 2.0928 11.9998 2.22864V9.7715C11.998 9.90734 11.9432 10.0371 11.8472 10.1332C11.7511 10.2293 11.6213 10.284 11.4855 10.2858C11.3496 10.284 11.2199 10.2293 11.1238 10.1332C11.0277 10.0371 10.973 9.90734 10.9712 9.7715V2.22864C10.973 2.0928 11.0277 1.96302 11.1238 1.86695C11.2199 1.77089 11.3496 1.71613 11.4855 1.71436Z" fill="black"/>
</g>
</g>
</g>
</g>
</g>
<defs>
<clipPath id="clip0_3_2702">
<rect width="12" height="12" fill="white"/>
</clipPath>
</defs>
</svg>
